<mxfile host="app.diagrams.net" agent="Mozilla/5.0 (Windows NT 10.0; Win64; x64) AppleWebKit/537.36 (KHTML, like Gecko) Chrome/131.0.0.0 Safari/537.36 Edg/131.0.0.0" version="25.0.3">
  <diagram id="C5RBs43oDa-KdzZeNtuy" name="Page-1">
    <mxGraphModel dx="1042" dy="565" grid="1" gridSize="10" guides="1" tooltips="1" connect="1" arrows="1" fold="1" page="1" pageScale="1" pageWidth="827" pageHeight="1169" math="0" shadow="0">
      <root>
        <mxCell id="WIyWlLk6GJQsqaUBKTNV-0" />
        <mxCell id="WIyWlLk6GJQsqaUBKTNV-1" parent="WIyWlLk6GJQsqaUBKTNV-0" />
        <mxCell id="oBrixUNFd5QE28Qq7A48-2" value="" style="edgeStyle=orthogonalEdgeStyle;rounded=0;orthogonalLoop=1;jettySize=auto;html=1;" edge="1" parent="WIyWlLk6GJQsqaUBKTNV-1" source="oBrixUNFd5QE28Qq7A48-0" target="oBrixUNFd5QE28Qq7A48-1">
          <mxGeometry relative="1" as="geometry" />
        </mxCell>
        <mxCell id="oBrixUNFd5QE28Qq7A48-0" value="START" style="ellipse;whiteSpace=wrap;html=1;" vertex="1" parent="WIyWlLk6GJQsqaUBKTNV-1">
          <mxGeometry x="350" y="250" width="120" height="80" as="geometry" />
        </mxCell>
        <mxCell id="oBrixUNFd5QE28Qq7A48-4" value="" style="edgeStyle=orthogonalEdgeStyle;rounded=0;orthogonalLoop=1;jettySize=auto;html=1;" edge="1" parent="WIyWlLk6GJQsqaUBKTNV-1" source="oBrixUNFd5QE28Qq7A48-1" target="oBrixUNFd5QE28Qq7A48-3">
          <mxGeometry relative="1" as="geometry" />
        </mxCell>
        <mxCell id="oBrixUNFd5QE28Qq7A48-1" value="Nhập a,b,c" style="shape=parallelogram;perimeter=parallelogramPerimeter;whiteSpace=wrap;html=1;fixedSize=1;" vertex="1" parent="WIyWlLk6GJQsqaUBKTNV-1">
          <mxGeometry x="350" y="420" width="120" height="60" as="geometry" />
        </mxCell>
        <mxCell id="oBrixUNFd5QE28Qq7A48-23" value="FALSE" style="edgeStyle=orthogonalEdgeStyle;rounded=0;orthogonalLoop=1;jettySize=auto;html=1;" edge="1" parent="WIyWlLk6GJQsqaUBKTNV-1" source="oBrixUNFd5QE28Qq7A48-3" target="oBrixUNFd5QE28Qq7A48-22">
          <mxGeometry relative="1" as="geometry">
            <Array as="points">
              <mxPoint x="140" y="590" />
            </Array>
          </mxGeometry>
        </mxCell>
        <mxCell id="oBrixUNFd5QE28Qq7A48-35" style="edgeStyle=orthogonalEdgeStyle;rounded=0;orthogonalLoop=1;jettySize=auto;html=1;entryX=0;entryY=0.5;entryDx=0;entryDy=0;" edge="1" parent="WIyWlLk6GJQsqaUBKTNV-1" source="oBrixUNFd5QE28Qq7A48-3" target="oBrixUNFd5QE28Qq7A48-6">
          <mxGeometry relative="1" as="geometry" />
        </mxCell>
        <mxCell id="oBrixUNFd5QE28Qq7A48-3" value="a = 0?" style="rhombus;whiteSpace=wrap;html=1;" vertex="1" parent="WIyWlLk6GJQsqaUBKTNV-1">
          <mxGeometry x="370" y="550" width="80" height="80" as="geometry" />
        </mxCell>
        <mxCell id="oBrixUNFd5QE28Qq7A48-9" value="TRUE" style="edgeStyle=orthogonalEdgeStyle;rounded=0;orthogonalLoop=1;jettySize=auto;html=1;" edge="1" parent="WIyWlLk6GJQsqaUBKTNV-1" source="oBrixUNFd5QE28Qq7A48-6" target="oBrixUNFd5QE28Qq7A48-8">
          <mxGeometry relative="1" as="geometry" />
        </mxCell>
        <mxCell id="oBrixUNFd5QE28Qq7A48-6" value="b = 0?" style="rhombus;whiteSpace=wrap;html=1;" vertex="1" parent="WIyWlLk6GJQsqaUBKTNV-1">
          <mxGeometry x="540" y="550" width="80" height="80" as="geometry" />
        </mxCell>
        <mxCell id="oBrixUNFd5QE28Qq7A48-11" value="TRUE" style="edgeStyle=orthogonalEdgeStyle;rounded=0;orthogonalLoop=1;jettySize=auto;html=1;entryX=0;entryY=0.75;entryDx=0;entryDy=0;" edge="1" parent="WIyWlLk6GJQsqaUBKTNV-1" source="oBrixUNFd5QE28Qq7A48-8" target="oBrixUNFd5QE28Qq7A48-10">
          <mxGeometry relative="1" as="geometry">
            <mxPoint x="800" y="570" as="targetPoint" />
            <Array as="points" />
          </mxGeometry>
        </mxCell>
        <mxCell id="oBrixUNFd5QE28Qq7A48-13" value="FALSE" style="edgeStyle=orthogonalEdgeStyle;rounded=0;orthogonalLoop=1;jettySize=auto;html=1;entryX=0;entryY=0.5;entryDx=0;entryDy=0;" edge="1" parent="WIyWlLk6GJQsqaUBKTNV-1" source="oBrixUNFd5QE28Qq7A48-8" target="oBrixUNFd5QE28Qq7A48-12">
          <mxGeometry relative="1" as="geometry">
            <mxPoint x="800" y="740" as="targetPoint" />
            <Array as="points">
              <mxPoint x="760" y="680" />
            </Array>
          </mxGeometry>
        </mxCell>
        <mxCell id="oBrixUNFd5QE28Qq7A48-8" value="c = 0?" style="rhombus;whiteSpace=wrap;html=1;" vertex="1" parent="WIyWlLk6GJQsqaUBKTNV-1">
          <mxGeometry x="690" y="550" width="80" height="80" as="geometry" />
        </mxCell>
        <mxCell id="oBrixUNFd5QE28Qq7A48-48" style="edgeStyle=orthogonalEdgeStyle;rounded=0;orthogonalLoop=1;jettySize=auto;html=1;entryX=0;entryY=0;entryDx=0;entryDy=0;" edge="1" parent="WIyWlLk6GJQsqaUBKTNV-1" source="oBrixUNFd5QE28Qq7A48-10" target="oBrixUNFd5QE28Qq7A48-46">
          <mxGeometry relative="1" as="geometry" />
        </mxCell>
        <mxCell id="oBrixUNFd5QE28Qq7A48-10" value="Phương trình&lt;br&gt;vô số nghiệm" style="whiteSpace=wrap;html=1;" vertex="1" parent="WIyWlLk6GJQsqaUBKTNV-1">
          <mxGeometry x="850" y="525" width="120" height="60" as="geometry" />
        </mxCell>
        <mxCell id="oBrixUNFd5QE28Qq7A48-49" style="edgeStyle=orthogonalEdgeStyle;rounded=0;orthogonalLoop=1;jettySize=auto;html=1;entryX=0;entryY=0.5;entryDx=0;entryDy=0;" edge="1" parent="WIyWlLk6GJQsqaUBKTNV-1" source="oBrixUNFd5QE28Qq7A48-12" target="oBrixUNFd5QE28Qq7A48-46">
          <mxGeometry relative="1" as="geometry" />
        </mxCell>
        <mxCell id="oBrixUNFd5QE28Qq7A48-12" value="Phương trình&lt;br&gt;vô nghiệm" style="whiteSpace=wrap;html=1;" vertex="1" parent="WIyWlLk6GJQsqaUBKTNV-1">
          <mxGeometry x="850" y="650" width="120" height="60" as="geometry" />
        </mxCell>
        <mxCell id="oBrixUNFd5QE28Qq7A48-37" style="edgeStyle=orthogonalEdgeStyle;rounded=0;orthogonalLoop=1;jettySize=auto;html=1;" edge="1" parent="WIyWlLk6GJQsqaUBKTNV-1" source="oBrixUNFd5QE28Qq7A48-17" target="oBrixUNFd5QE28Qq7A48-20">
          <mxGeometry relative="1" as="geometry" />
        </mxCell>
        <mxCell id="oBrixUNFd5QE28Qq7A48-17" value="x = -c/b" style="rounded=0;whiteSpace=wrap;html=1;" vertex="1" parent="WIyWlLk6GJQsqaUBKTNV-1">
          <mxGeometry x="530" y="380" width="120" height="60" as="geometry" />
        </mxCell>
        <mxCell id="oBrixUNFd5QE28Qq7A48-47" style="edgeStyle=orthogonalEdgeStyle;rounded=0;orthogonalLoop=1;jettySize=auto;html=1;entryX=0.5;entryY=0;entryDx=0;entryDy=0;" edge="1" parent="WIyWlLk6GJQsqaUBKTNV-1" source="oBrixUNFd5QE28Qq7A48-20" target="oBrixUNFd5QE28Qq7A48-46">
          <mxGeometry relative="1" as="geometry" />
        </mxCell>
        <mxCell id="oBrixUNFd5QE28Qq7A48-20" value="Phương trình có&lt;br&gt;1 nghiệm x&amp;nbsp;" style="shape=parallelogram;perimeter=parallelogramPerimeter;whiteSpace=wrap;html=1;fixedSize=1;rounded=0;" vertex="1" parent="WIyWlLk6GJQsqaUBKTNV-1">
          <mxGeometry x="720" y="380" width="120" height="60" as="geometry" />
        </mxCell>
        <mxCell id="oBrixUNFd5QE28Qq7A48-27" value="" style="edgeStyle=orthogonalEdgeStyle;rounded=0;orthogonalLoop=1;jettySize=auto;html=1;" edge="1" parent="WIyWlLk6GJQsqaUBKTNV-1" source="oBrixUNFd5QE28Qq7A48-22" target="oBrixUNFd5QE28Qq7A48-26">
          <mxGeometry relative="1" as="geometry" />
        </mxCell>
        <mxCell id="oBrixUNFd5QE28Qq7A48-22" value="delta= b*b - 4*a*c" style="whiteSpace=wrap;html=1;" vertex="1" parent="WIyWlLk6GJQsqaUBKTNV-1">
          <mxGeometry x="110" y="620" width="120" height="60" as="geometry" />
        </mxCell>
        <mxCell id="oBrixUNFd5QE28Qq7A48-29" value="TRUE" style="edgeStyle=orthogonalEdgeStyle;rounded=0;orthogonalLoop=1;jettySize=auto;html=1;exitX=1;exitY=0.5;exitDx=0;exitDy=0;entryX=0.5;entryY=1;entryDx=0;entryDy=0;" edge="1" parent="WIyWlLk6GJQsqaUBKTNV-1" source="oBrixUNFd5QE28Qq7A48-26" target="oBrixUNFd5QE28Qq7A48-12">
          <mxGeometry relative="1" as="geometry">
            <mxPoint x="360" y="800" as="sourcePoint" />
            <Array as="points">
              <mxPoint x="910" y="790" />
            </Array>
          </mxGeometry>
        </mxCell>
        <mxCell id="oBrixUNFd5QE28Qq7A48-31" value="FALSE" style="edgeStyle=orthogonalEdgeStyle;rounded=0;orthogonalLoop=1;jettySize=auto;html=1;" edge="1" parent="WIyWlLk6GJQsqaUBKTNV-1" source="oBrixUNFd5QE28Qq7A48-26">
          <mxGeometry relative="1" as="geometry">
            <mxPoint x="50" y="840" as="targetPoint" />
          </mxGeometry>
        </mxCell>
        <mxCell id="oBrixUNFd5QE28Qq7A48-26" value="delta &amp;lt; 0" style="rhombus;whiteSpace=wrap;html=1;" vertex="1" parent="WIyWlLk6GJQsqaUBKTNV-1">
          <mxGeometry x="130" y="750" width="80" height="80" as="geometry" />
        </mxCell>
        <mxCell id="oBrixUNFd5QE28Qq7A48-34" value="TRUE" style="edgeStyle=orthogonalEdgeStyle;rounded=0;orthogonalLoop=1;jettySize=auto;html=1;" edge="1" parent="WIyWlLk6GJQsqaUBKTNV-1" source="oBrixUNFd5QE28Qq7A48-32" target="oBrixUNFd5QE28Qq7A48-33">
          <mxGeometry relative="1" as="geometry" />
        </mxCell>
        <mxCell id="oBrixUNFd5QE28Qq7A48-43" value="FALSE" style="edgeStyle=orthogonalEdgeStyle;rounded=0;orthogonalLoop=1;jettySize=auto;html=1;" edge="1" parent="WIyWlLk6GJQsqaUBKTNV-1" source="oBrixUNFd5QE28Qq7A48-32" target="oBrixUNFd5QE28Qq7A48-42">
          <mxGeometry relative="1" as="geometry">
            <Array as="points">
              <mxPoint x="50" y="970" />
            </Array>
          </mxGeometry>
        </mxCell>
        <mxCell id="oBrixUNFd5QE28Qq7A48-32" value="delta = 0" style="rhombus;whiteSpace=wrap;html=1;" vertex="1" parent="WIyWlLk6GJQsqaUBKTNV-1">
          <mxGeometry x="10" y="840" width="80" height="80" as="geometry" />
        </mxCell>
        <mxCell id="oBrixUNFd5QE28Qq7A48-39" style="edgeStyle=orthogonalEdgeStyle;rounded=0;orthogonalLoop=1;jettySize=auto;html=1;entryX=0;entryY=0.5;entryDx=0;entryDy=0;" edge="1" parent="WIyWlLk6GJQsqaUBKTNV-1" source="oBrixUNFd5QE28Qq7A48-33" target="oBrixUNFd5QE28Qq7A48-38">
          <mxGeometry relative="1" as="geometry" />
        </mxCell>
        <mxCell id="oBrixUNFd5QE28Qq7A48-33" value="x = -b/(2a)" style="whiteSpace=wrap;html=1;" vertex="1" parent="WIyWlLk6GJQsqaUBKTNV-1">
          <mxGeometry x="160" y="850" width="120" height="60" as="geometry" />
        </mxCell>
        <mxCell id="oBrixUNFd5QE28Qq7A48-36" value="FALSe" style="edgeStyle=orthogonalEdgeStyle;rounded=0;orthogonalLoop=1;jettySize=auto;html=1;entryX=0.413;entryY=1.033;entryDx=0;entryDy=0;entryPerimeter=0;" edge="1" parent="WIyWlLk6GJQsqaUBKTNV-1" source="oBrixUNFd5QE28Qq7A48-6" target="oBrixUNFd5QE28Qq7A48-17">
          <mxGeometry relative="1" as="geometry" />
        </mxCell>
        <mxCell id="oBrixUNFd5QE28Qq7A48-50" style="edgeStyle=orthogonalEdgeStyle;rounded=0;orthogonalLoop=1;jettySize=auto;html=1;entryX=0;entryY=1;entryDx=0;entryDy=0;" edge="1" parent="WIyWlLk6GJQsqaUBKTNV-1" source="oBrixUNFd5QE28Qq7A48-38" target="oBrixUNFd5QE28Qq7A48-46">
          <mxGeometry relative="1" as="geometry" />
        </mxCell>
        <mxCell id="oBrixUNFd5QE28Qq7A48-38" value="Phương trình&lt;br&gt;có nghiệm kép&lt;br&gt;x" style="shape=parallelogram;perimeter=parallelogramPerimeter;whiteSpace=wrap;html=1;fixedSize=1;" vertex="1" parent="WIyWlLk6GJQsqaUBKTNV-1">
          <mxGeometry x="330" y="850" width="120" height="60" as="geometry" />
        </mxCell>
        <mxCell id="oBrixUNFd5QE28Qq7A48-45" style="edgeStyle=orthogonalEdgeStyle;rounded=0;orthogonalLoop=1;jettySize=auto;html=1;entryX=0;entryY=0.5;entryDx=0;entryDy=0;" edge="1" parent="WIyWlLk6GJQsqaUBKTNV-1" source="oBrixUNFd5QE28Qq7A48-42" target="oBrixUNFd5QE28Qq7A48-44">
          <mxGeometry relative="1" as="geometry" />
        </mxCell>
        <mxCell id="oBrixUNFd5QE28Qq7A48-42" value="x1=(-b-sqrt(delta))/2a&lt;br&gt;x2=(-b+sqrt(delta))/2a" style="whiteSpace=wrap;html=1;" vertex="1" parent="WIyWlLk6GJQsqaUBKTNV-1">
          <mxGeometry x="160" y="940" width="120" height="60" as="geometry" />
        </mxCell>
        <mxCell id="oBrixUNFd5QE28Qq7A48-51" style="edgeStyle=orthogonalEdgeStyle;rounded=0;orthogonalLoop=1;jettySize=auto;html=1;entryX=0.5;entryY=1;entryDx=0;entryDy=0;" edge="1" parent="WIyWlLk6GJQsqaUBKTNV-1" source="oBrixUNFd5QE28Qq7A48-44" target="oBrixUNFd5QE28Qq7A48-46">
          <mxGeometry relative="1" as="geometry" />
        </mxCell>
        <mxCell id="oBrixUNFd5QE28Qq7A48-44" value="Phương trình có 2&lt;br&gt;nghiệm x1 x2" style="shape=parallelogram;perimeter=parallelogramPerimeter;whiteSpace=wrap;html=1;fixedSize=1;" vertex="1" parent="WIyWlLk6GJQsqaUBKTNV-1">
          <mxGeometry x="320" y="940" width="120" height="60" as="geometry" />
        </mxCell>
        <mxCell id="oBrixUNFd5QE28Qq7A48-46" value="END" style="ellipse;whiteSpace=wrap;html=1;" vertex="1" parent="WIyWlLk6GJQsqaUBKTNV-1">
          <mxGeometry x="1090" y="640" width="120" height="80" as="geometry" />
        </mxCell>
      </root>
    </mxGraphModel>
  </diagram>
</mxfile>
